<svg width="100" height="100" viewBox="0 0 100 100" fill="none" xmlns="http://www.w3.org/2000/svg">
<g filter="url(#filter0_i_301_5)">
<path d="M50 8.33333C27.025 8.33333 8.33331 27.025 8.33331 50C8.33331 72.975 27.025 91.6667 50 91.6667C72.975 91.6667 91.6667 72.975 91.6667 50C91.6667 27.025 72.975 8.33333 50 8.33333ZM50 83.3333C31.6208 83.3333 16.6666 68.3792 16.6666 50C16.6666 31.6208 31.6208 16.6667 50 16.6667C68.3791 16.6667 83.3333 31.6208 83.3333 50C83.3333 68.3792 68.3791 83.3333 50 83.3333Z" fill="#FF0505"/>
<path d="M50 58.3333C37.5 58.3333 33.3333 70.8333 33.3333 70.8333H66.6667C66.6667 70.8333 62.5 58.3333 50 58.3333ZM39.8375 48.1708C39.8958 48.1125 39.9333 48.0458 39.9917 47.9875L44.2875 49.7083L47.3792 41.9708L26.5458 33.6375L23.4542 41.3708L29.175 43.6583L29.1667 43.75C29.1641 44.9874 29.5292 46.1977 30.2156 47.2274C30.9019 48.257 31.8787 49.0595 33.0219 49.5332C34.1651 50.0068 35.4233 50.1301 36.6367 49.8876C37.8501 49.6451 38.9642 49.0475 39.8375 48.1708V48.1708ZM52.6208 41.9625L55.7125 49.7L60.0333 47.9708C60.0792 48.0167 60.1125 48.0708 60.1542 48.1167C60.7305 48.6972 61.4159 49.1579 62.1711 49.4723C62.9263 49.7867 63.7362 49.9486 64.5542 49.9486C65.3722 49.9486 66.1821 49.7867 66.9372 49.4723C67.6924 49.1579 68.3779 48.6972 68.9542 48.1167C70.0833 46.9875 70.7792 45.4333 70.7792 43.7167L70.775 43.675L76.55 41.3667L73.4583 33.6292L52.6208 41.9625V41.9625Z" fill="#FF0404"/>
</g>
<defs>
<filter id="filter0_i_301_5" x="0" y="0" width="100" height="104" filterUnits="userSpaceOnUse" color-interpolation-filters="sRGB">
<feFlood flood-opacity="0" result="BackgroundImageFix"/>
<feBlend mode="normal" in="SourceGraphic" in2="BackgroundImageFix" result="shape"/>
<feColorMatrix in="SourceAlpha" type="matrix" values="0 0 0 0 0 0 0 0 0 0 0 0 0 0 0 0 0 0 127 0" result="hardAlpha"/>
<feOffset dy="4"/>
<feGaussianBlur stdDeviation="2"/>
<feComposite in2="hardAlpha" operator="arithmetic" k2="-1" k3="1"/>
<feColorMatrix type="matrix" values="0 0 0 0 0 0 0 0 0 0 0 0 0 0 0 0 0 0 0.25 0"/>
<feBlend mode="normal" in2="shape" result="effect1_innerShadow_301_5"/>
</filter>
</defs>
</svg>
